<svg id="Calque_1" data-name="Calque 1" xmlns="http://www.w3.org/2000/svg" viewBox="0 0 431.42 142.89"><defs><style>.cls-1{fill:#ff6060;}</style></defs><title>logo</title><path class="cls-1" d="M107.86,126l-23,23.51v33H66.77V55.12h18.1v71.3l68.61-71.3h20.73L120.3,112.39,178,182.56H156.87Z" transform="translate(-66.77 -55.12)"/><path class="cls-1" d="M310.68,171.55l7.49-14.28c8.68,6,22.08,10.32,35.1,10.32,17,0,23.66-5.16,23.66-13.89,0-22.61-63.49-3.17-63.49-43.25,0-18.25,16.17-30.15,41.8-30.15,13,0,28,3.57,36.68,9.13L384,103.71c-9.07-6-18.93-7.93-28.79-7.93-15.77,0-23.66,6-23.66,13.89,0,23.8,63.49,4.36,63.49,43.64,0,18.25-16.56,29.76-43.38,29.76C335.53,183.46,319,178.3,310.68,171.55Z" transform="translate(-66.77 -55.12)"/><path class="cls-1" d="M498.19,121.52v60.26H481.08v-13.3c-5.83,9-17.11,14.09-32.67,14.09-22.56,0-36.56-12.13-36.56-29.35,0-16,10.11-29,39.67-29h28.39v-3.52c0-15.26-8.95-23.87-26.45-23.87-11.67,0-23.72,4.3-31.5,10.56l-7.39-13.7c10.11-8.22,24.89-12.91,40.84-12.91C483,81.22,498.19,94.52,498.19,121.52ZM480.3,151.26V137.17H452.69c-17.89,0-22.95,7-22.95,15.26,0,9.78,8.17,16,21.78,16C465.13,168.86,476,163,480.3,151.26Z" transform="translate(-66.77 -55.12)"/><path class="cls-1" d="M260.57,155.81v26.75l11.34-6.69V149.12Z" transform="translate(-66.77 -55.12)"/><path class="cls-1" d="M290,124.26,241.85,96.15,215.12,80.67l-26.32,46,.4,43.19L237,198l4.86-2.85V154.41l21.46-37.89,21.87,12.63V169.9L290,167Z" transform="translate(-66.77 -55.12)"/></svg>